<svg xmlns="http://www.w3.org/2000/svg" xmlns:xlink="http://www.w3.org/1999/xlink" viewBox="0 0 127.46 127.49"><defs><style>.cls-1{fill:url(#linear-gradient);}.cls-2{fill:#00b009;}.cls-3{fill:url(#radial-gradient);}.cls-4,.cls-5{fill:#fff;}.cls-5{opacity:0.3;}.cls-6{fill:url(#radial-gradient-2);}.cls-7{fill:url(#radial-gradient-3);}</style><linearGradient id="linear-gradient" x1="-1230.83" y1="42.25" x2="-1146.68" y2="-49.5" gradientTransform="translate(906.89 -774.27) rotate(-45)" gradientUnits="userSpaceOnUse"><stop offset="0" stop-color="#00bb24"/><stop offset="1" stop-color="#23df00"/></linearGradient><radialGradient id="radial-gradient" cx="-1188.76" cy="-3.62" r="60.75" gradientTransform="translate(906.89 -774.27) rotate(-45)" gradientUnits="userSpaceOnUse"><stop offset="0" stop-color="#fff" stop-opacity="0"/><stop offset="0.41" stop-color="#fff" stop-opacity="0.01"/><stop offset="0.55" stop-color="#fff" stop-opacity="0.03"/><stop offset="0.66" stop-color="#fff" stop-opacity="0.08"/><stop offset="0.74" stop-color="#fff" stop-opacity="0.15"/><stop offset="0.81" stop-color="#fff" stop-opacity="0.23"/><stop offset="0.88" stop-color="#fff" stop-opacity="0.34"/><stop offset="0.94" stop-color="#fff" stop-opacity="0.47"/><stop offset="0.99" stop-color="#fff" stop-opacity="0.61"/><stop offset="1" stop-color="#fff" stop-opacity="0.65"/></radialGradient><radialGradient id="radial-gradient-2" cx="-186.43" cy="121.13" fx="-195.09627157742452" r="44.94" gradientTransform="translate(231.45 -79.2) rotate(-8.5)" gradientUnits="userSpaceOnUse"><stop offset="0" stop-color="#fff" stop-opacity="0.3"/><stop offset="0.11" stop-color="#fff" stop-opacity="0.26"/><stop offset="0.33" stop-color="#fff" stop-opacity="0.2"/><stop offset="0.51" stop-color="#fff" stop-opacity="0.18"/><stop offset="0.65" stop-color="#fff" stop-opacity="0.16"/><stop offset="0.83" stop-color="#fff" stop-opacity="0.09"/><stop offset="1" stop-color="#fff" stop-opacity="0"/></radialGradient><radialGradient id="radial-gradient-3" cx="108.14" cy="88.62" fx="108.13699847363387" r="14.19" gradientTransform="matrix(1, 0, 0, 1, 0, 0)" xlink:href="#radial-gradient-2"/></defs><g id="Layer_2" data-name="Layer 2"><g id="Layer_1-2" data-name="Layer 1"><path class="cls-1" d="M63.75,126a62.25,62.25,0,0,1-44-106.26,62.25,62.25,0,0,1,88,88A61.83,61.83,0,0,1,63.75,126Z"/><path class="cls-2" d="M63.75,3a60.75,60.75,0,1,1-43,17.79A60.56,60.56,0,0,1,63.75,3m0-3A63.75,63.75,0,0,0,18.67,108.82a63.75,63.75,0,0,0,90.15-90.15A63.33,63.33,0,0,0,63.75,0Z"/><circle class="cls-3" cx="63.75" cy="63.75" r="60.75"/><ellipse class="cls-4" cx="38.16" cy="25.8" rx="8.53" ry="6.22" transform="translate(-7.07 34.54) rotate(-45)"/><ellipse class="cls-5" cx="90.29" cy="108.12" rx="5.38" ry="3.92" transform="translate(-47.61 79.37) rotate(-38.36)"/><path class="cls-6" d="M118.29,56.08c-.19-1.25-.43-2.48-.7-3.7-44.67,38.06-90.21,21.71-109,12a55.77,55.77,0,0,0,.6,8,55.16,55.16,0,0,0,109.1-16.31Z"/><path class="cls-7" d="M98.82,105.28a1.85,1.85,0,0,1-1.54-.84,1.72,1.72,0,0,1,.54-2.53c3.59-1.37,18.08-9.23,17.84-28.39A1.74,1.74,0,0,1,117.74,72a1.82,1.82,0,0,1,1.55,2.08c-3,20-18.8,30.49-19.47,30.93A1.93,1.93,0,0,1,98.82,105.28Z"/></g></g></svg>