<svg xmlns="http://www.w3.org/2000/svg" xmlns:xlink="http://www.w3.org/1999/xlink" viewBox="0 0 121.49 121.49"><defs><style>.cls-1{fill:url(#linear-gradient);}.cls-2{fill:url(#radial-gradient);}.cls-3,.cls-4{fill:#fff;}.cls-4{opacity:0.3;}.cls-5{fill:url(#radial-gradient-2);}.cls-6{fill:url(#radial-gradient-3);}</style><linearGradient id="linear-gradient" x1="-1007.18" y1="-506.58" x2="-925.07" y2="-596.12" gradientTransform="translate(1133.76 -232.55) rotate(-45)" gradientUnits="userSpaceOnUse"><stop offset="0" stop-color="#6003b3"/><stop offset="0.39" stop-color="#862cd6"/><stop offset="0.79" stop-color="#a64ff4"/><stop offset="1" stop-color="#b25cff"/></linearGradient><radialGradient id="radial-gradient" cx="-966.13" cy="-551.35" r="60.75" gradientTransform="translate(1133.76 -232.55) rotate(-45)" gradientUnits="userSpaceOnUse"><stop offset="0" stop-color="#fff" stop-opacity="0"/><stop offset="0.43" stop-color="#fff" stop-opacity="0.01"/><stop offset="0.58" stop-color="#fff" stop-opacity="0.03"/><stop offset="0.69" stop-color="#fff" stop-opacity="0.08"/><stop offset="0.78" stop-color="#fff" stop-opacity="0.15"/><stop offset="0.86" stop-color="#fff" stop-opacity="0.23"/><stop offset="0.93" stop-color="#fff" stop-opacity="0.34"/><stop offset="0.98" stop-color="#fff" stop-opacity="0.46"/><stop offset="1" stop-color="#fff" stop-opacity="0.5"/></radialGradient><radialGradient id="radial-gradient-2" cx="-180.97" cy="4.25" fx="-189.63160113491298" r="44.94" gradientTransform="translate(240.32 34.21) rotate(-8.5)" gradientUnits="userSpaceOnUse"><stop offset="0" stop-color="#fff" stop-opacity="0.3"/><stop offset="0.11" stop-color="#fff" stop-opacity="0.26"/><stop offset="0.33" stop-color="#fff" stop-opacity="0.2"/><stop offset="0.51" stop-color="#fff" stop-opacity="0.18"/><stop offset="0.65" stop-color="#fff" stop-opacity="0.16"/><stop offset="0.83" stop-color="#fff" stop-opacity="0.09"/><stop offset="1" stop-color="#fff" stop-opacity="0"/></radialGradient><radialGradient id="radial-gradient-3" cx="105.14" cy="85.62" fx="105.13697224592215" r="14.19" gradientTransform="matrix(1, 0, 0, 1, 0, 0)" xlink:href="#radial-gradient-2"/></defs><g id="Layer_2" data-name="Layer 2"><g id="Layer_1-2" data-name="Layer 1"><circle class="cls-1" cx="60.75" cy="60.75" r="60.75"/><circle class="cls-2" cx="60.75" cy="60.75" r="60.75"/><ellipse class="cls-3" cx="35.16" cy="22.8" rx="8.53" ry="6.22" transform="translate(-5.82 31.54) rotate(-45)"/><ellipse class="cls-4" cx="87.29" cy="105.12" rx="5.38" ry="3.92" transform="translate(-46.4 76.86) rotate(-38.36)"/><path class="cls-5" d="M115.29,53.08c-.19-1.25-.43-2.48-.7-3.7-44.67,38.06-90.21,21.71-109,12a55.77,55.77,0,0,0,.6,8,55.16,55.16,0,0,0,109.1-16.31Z"/><path class="cls-6" d="M95.82,102.28a1.85,1.85,0,0,1-1.54-.84,1.72,1.72,0,0,1,.54-2.53c3.59-1.37,18.08-9.23,17.84-28.39A1.74,1.74,0,0,1,114.74,69a1.82,1.82,0,0,1,1.55,2.08c-3,20-18.8,30.49-19.47,30.93A1.93,1.93,0,0,1,95.82,102.28Z"/></g></g></svg>