<svg xmlns="http://www.w3.org/2000/svg" xmlns:xlink="http://www.w3.org/1999/xlink" viewBox="0 0 128.8 128.83"><defs><style>.cls-1{fill:#fea536;}.cls-2{fill:url(#linear-gradient);}.cls-3{fill:url(#radial-gradient);}.cls-4,.cls-5{fill:#fff;}.cls-5{opacity:0.3;}.cls-6{fill:url(#radial-gradient-2);}.cls-7{fill:url(#radial-gradient-3);}</style><linearGradient id="linear-gradient" x1="-1304.36" y1="223.4" x2="-1222.25" y2="133.86" gradientTransform="translate(831.39 -955.19) rotate(-45)" gradientUnits="userSpaceOnUse"><stop offset="0" stop-color="#efc500"/><stop offset="1" stop-color="#ffb303"/></linearGradient><radialGradient id="radial-gradient" cx="-1263.31" cy="178.63" r="60.75" gradientTransform="translate(831.39 -955.19) rotate(-45)" gradientUnits="userSpaceOnUse"><stop offset="0" stop-color="#fff" stop-opacity="0"/><stop offset="0.41" stop-color="#fff" stop-opacity="0.01"/><stop offset="0.55" stop-color="#fff" stop-opacity="0.03"/><stop offset="0.66" stop-color="#fff" stop-opacity="0.08"/><stop offset="0.74" stop-color="#fff" stop-opacity="0.15"/><stop offset="0.81" stop-color="#fff" stop-opacity="0.23"/><stop offset="0.88" stop-color="#fff" stop-opacity="0.34"/><stop offset="0.94" stop-color="#fff" stop-opacity="0.47"/><stop offset="0.99" stop-color="#fff" stop-opacity="0.61"/><stop offset="1" stop-color="#fff" stop-opacity="0.65"/></radialGradient><radialGradient id="radial-gradient-2" cx="-188.59" cy="159.76" fx="-197.25086560658937" r="44.94" gradientTransform="translate(228.53 -117.06) rotate(-8.5)" gradientUnits="userSpaceOnUse"><stop offset="0" stop-color="#fff" stop-opacity="0.3"/><stop offset="0.11" stop-color="#fff" stop-opacity="0.26"/><stop offset="0.33" stop-color="#fff" stop-opacity="0.2"/><stop offset="0.51" stop-color="#fff" stop-opacity="0.18"/><stop offset="0.65" stop-color="#fff" stop-opacity="0.16"/><stop offset="0.83" stop-color="#fff" stop-opacity="0.09"/><stop offset="1" stop-color="#fff" stop-opacity="0"/></radialGradient><radialGradient id="radial-gradient-3" cx="108.8" cy="89.28" fx="108.80417578720062" r="14.19" gradientTransform="matrix(1, 0, 0, 1, 0, 0)" xlink:href="#radial-gradient-2"/></defs><g id="Layer_2" data-name="Layer 2"><g id="Layer_1-2" data-name="Layer 1"><path class="cls-1" d="M64.41,3.67A60.75,60.75,0,1,1,21.46,21.46,60.56,60.56,0,0,1,64.41,3.67m0-3.67A64.41,64.41,0,0,0,18.87,110,64.41,64.41,0,0,0,110,18.87,64,64,0,0,0,64.41,0Z"/><circle class="cls-2" cx="64.41" cy="64.41" r="60.75"/><circle class="cls-3" cx="64.41" cy="64.41" r="60.75"/><ellipse class="cls-4" cx="38.82" cy="26.47" rx="8.53" ry="6.22" transform="translate(-7.34 35.2) rotate(-45)"/><ellipse class="cls-5" cx="90.95" cy="108.79" rx="5.38" ry="3.92" transform="translate(-47.88 79.92) rotate(-38.36)"/><path class="cls-6" d="M119,56.75c-.18-1.26-.43-2.49-.69-3.71-44.67,38.06-90.21,21.71-109,12A55.15,55.15,0,1,0,119,56.75Z"/><path class="cls-7" d="M99.49,106a1.84,1.84,0,0,1-1.54-.84,1.73,1.73,0,0,1,.54-2.54c3.59-1.37,18.08-9.22,17.84-28.38a1.75,1.75,0,0,1,2.08-1.55A1.84,1.84,0,0,1,120,74.72c-3,20-18.8,30.5-19.48,30.93A1.79,1.79,0,0,1,99.49,106Z"/></g></g></svg>